<?xml version="1.0" standalone="no"?>
<!DOCTYPE svg PUBLIC "-//W3C//DTD SVG 20010904//EN"
 "http://www.w3.org/TR/2001/REC-SVG-20010904/DTD/svg10.dtd">
<svg version="1.0" xmlns="http://www.w3.org/2000/svg"
 width="1055.000000pt" height="1055.000000pt" viewBox="0 0 1055.000000 1055.000000"
 preserveAspectRatio="xMidYMid meet">
<metadata>
Created by potrace 1.14, written by Peter Selinger 2001-2017
</metadata>
<g transform="translate(0.000000,1055.000000) scale(0.100000,-0.100000)"
fill="#000000" stroke="none">
<path d="M0 5275 l0 -5275 915 0 915 0 0 1097 c0 1030 1 1098 18 1117 16 20
16 20 -1 7 -15 -12 -17 -10 -17 19 0 32 1 33 19 16 22 -20 38 -14 51 18 7 17
9 17 9 4 1 -22 14 -23 31 -3 7 9 9 22 5 32 -9 19 -15 68 -15 120 0 18 -9 48
-20 68 -28 50 -25 68 17 98 40 28 43 28 47 0 3 -14 11 -18 43 -16 39 1 39 1
37 -35 -2 -46 -13 -82 -26 -82 -5 0 -6 -4 -3 -10 12 -19 33 -10 43 19 7 19 17
29 29 28 12 -2 17 4 15 16 -2 9 3 20 11 23 8 3 15 15 16 27 1 12 3 35 4 51 2
35 -20 47 -25 14 -2 -12 -11 -24 -20 -26 -14 -3 -18 3 -18 25 0 21 -8 32 -30
45 -35 20 -39 51 -14 104 12 24 13 38 6 47 -6 7 -13 26 -16 41 -7 39 -17 48
-62 51 -22 1 -47 6 -57 10 -24 10 -48 -1 -41 -20 4 -9 18 -15 35 -15 19 0 29
-5 29 -14 0 -21 -20 -30 -33 -17 -16 16 -38 13 -53 -6 -11 -15 -13 160 -14
1049 0 587 4 1069 8 1072 5 3 18 -4 30 -14 22 -20 52 -27 52 -11 0 4 -20 19
-45 32 l-45 24 0 1792 c0 986 2 1793 4 1793 6 0 50 -154 101 -355 7 -27 27
-104 45 -170 18 -66 43 -158 55 -205 13 -47 35 -128 49 -180 13 -52 48 -176
76 -275 28 -99 55 -200 60 -225 5 -25 14 -61 20 -80 104 -361 144 -505 155
-550 35 -155 125 -484 185 -680 16 -52 43 -153 60 -225 26 -107 59 -237 86
-337 8 -27 -9 -28 -79 -4 -36 13 -67 22 -69 20 -2 -2 -22 3 -43 11 -47 16 -75
19 -75 6 0 -5 22 -12 48 -16 48 -6 94 -25 62 -25 -8 0 -60 7 -115 15 -55 8
-116 14 -135 14 -40 -1 -43 -1 140 -35 135 -26 291 -61 295 -66 1 -2 7 -29 14
-61 11 -50 18 -62 47 -79 37 -22 44 -38 16 -38 -9 0 -70 18 -136 40 -65 23
-126 38 -137 35 -11 -4 -26 2 -37 13 -11 11 -38 23 -61 27 -22 4 -43 11 -47
16 -3 5 -16 9 -28 9 -13 0 -41 6 -62 14 -22 7 -59 16 -84 19 l-45 6 45 -13
c25 -7 52 -15 60 -18 8 -4 40 -14 70 -23 114 -34 214 -87 188 -99 -7 -4 -3 -4
10 -2 13 3 49 -4 80 -15 31 -11 65 -23 75 -26 9 -3 24 0 31 6 12 10 17 8 26
-9 9 -16 15 -19 23 -11 16 16 32 14 18 -3 -9 -11 -4 -17 23 -30 20 -9 38 -21
42 -27 3 -6 -3 -5 -15 3 -33 20 -41 0 -25 -61 18 -68 12 -92 -16 -66 -23 21
-26 9 -5 -19 15 -19 21 -56 9 -56 -3 0 -20 11 -39 25 -69 53 -228 125 -276
125 -31 0 -113 23 -196 56 -34 13 -65 24 -69 24 -17 0 33 -28 86 -48 213 -80
470 -214 470 -246 0 -10 -12 -75 -26 -145 -33 -159 -30 -267 10 -384 14 -42
26 -89 26 -104 0 -14 -16 -55 -36 -90 -51 -91 -61 -161 -39 -277 19 -101 21
-88 -32 -180 -7 -11 -13 -41 -13 -67 0 -25 -5 -50 -12 -57 -6 -6 -11 -30 -10
-53 1 -27 -4 -49 -14 -60 -32 -35 -67 -151 -72 -233 -3 -75 -5 -80 -39 -112
-31 -29 -35 -38 -29 -65 5 -26 1 -38 -24 -66 -17 -18 -30 -41 -30 -50 0 -17
-35 -73 -77 -126 -38 -47 -30 -106 23 -170 17 -21 24 -41 24 -73 0 -42 -15
-59 -26 -30 -4 12 -9 11 -25 -5 -27 -27 -43 -70 -29 -79 6 -4 8 -14 5 -23 -4
-8 0 -31 8 -49 24 -52 29 -108 10 -108 -9 0 -13 -6 -10 -14 3 -8 -1 -44 -10
-80 -8 -37 -12 -79 -8 -94 17 -67 9 -126 -30 -207 -22 -44 -40 -93 -41 -110
-1 -16 -7 -49 -14 -73 -10 -34 -10 -49 0 -70 l12 -27 23 55 c14 30 24 62 25
70 0 27 37 114 50 118 9 3 11 -12 5 -67 -7 -69 -6 -71 18 -80 13 -5 62 -15
108 -21 100 -14 299 -62 351 -84 43 -18 57 -53 39 -92 -14 -32 -44 -221 -38
-244 3 -10 -13 -53 -34 -95 -51 -103 -69 -170 -76 -279 -4 -61 -10 -94 -19
-99 -8 -4 -14 -18 -14 -31 0 -13 -7 -29 -15 -36 -8 -7 -15 -19 -15 -28 0 -8
-6 -23 -14 -31 -7 -9 -16 -33 -19 -55 -5 -33 -3 -39 15 -44 18 -4 20 -10 14
-50 -3 -25 -6 -60 -6 -79 0 -22 -4 -33 -12 -31 -7 3 -10 30 -9 81 2 71 1 77
-18 77 -14 0 -21 8 -23 28 -4 37 -32 36 -36 -1 -3 -22 1 -30 18 -34 21 -5 21
-10 15 -75 -6 -57 -4 -72 9 -87 12 -13 15 -27 10 -45 -8 -33 -28 -29 -32 7 -2
15 -11 31 -21 37 -16 8 -19 5 -24 -23 -3 -18 -8 -40 -12 -49 -5 -13 0 -19 22
-24 41 -10 54 -23 47 -50 -13 -52 -2 -54 262 -54 l244 0 0 34 c0 33 20 62 33
49 4 -3 7 -1 7 5 0 6 -4 13 -8 16 -5 3 -8 40 -7 83 1 61 -2 81 -14 90 -13 9
-18 8 -24 -5 -4 -11 -6 -5 -4 15 2 18 0 30 -5 27 -8 -5 -13 32 -9 74 1 13 -4
22 -12 22 -25 0 -137 -132 -168 -197 -17 -35 -34 -63 -40 -63 -5 0 -9 47 -9
108 0 78 -4 114 -14 128 -14 18 -15 18 -26 -11 -7 -19 -11 -75 -8 -150 l3
-120 -25 3 c-13 1 -28 8 -32 15 -12 18 -10 75 3 83 7 4 10 -6 7 -32 -1 -21 2
-39 8 -41 13 -4 28 203 18 244 -7 25 -8 25 -15 8 -6 -17 -8 -16 -8 8 -1 20 5
30 24 37 14 5 25 12 25 15 0 36 46 275 70 360 17 61 38 137 46 170 38 141 117
373 139 405 13 19 33 62 45 95 19 54 49 127 79 195 12 26 12 24 -7 -263 -4
-54 -4 -180 0 -280 4 -100 7 -249 5 -332 -2 -145 -3 -150 -24 -160 -23 -10
-29 -25 -16 -38 3 -4 7 -118 8 -255 0 -136 4 -256 7 -267 3 -11 9 -32 13 -47
l7 -28 3679 0 3679 0 0 5275 0 5275 -5275 0 -5275 0 0 -5275z m5575 3947 c0
-13 8 -16 38 -14 31 2 39 -1 47 -20 5 -13 9 -17 9 -10 1 6 8 12 16 12 8 0 15
9 15 20 0 25 8 25 40 0 14 -11 29 -20 34 -20 5 0 15 -8 22 -17 12 -16 13 -16
14 8 0 26 39 86 40 62 0 -7 5 -12 12 -10 6 1 15 -9 19 -23 4 -14 7 -19 8 -12
2 24 21 11 21 -15 0 -26 1 -26 16 -7 8 10 12 12 8 4 -6 -12 -4 -13 7 -2 24 22
49 14 56 -18 4 -24 8 -28 19 -19 8 6 14 19 14 29 0 10 6 22 13 28 10 8 12 2 9
-28 -5 -48 9 -57 39 -25 14 14 35 25 52 25 30 0 37 -16 10 -24 -10 -3 1 -4 24
-3 40 2 41 2 36 -25 -4 -23 -2 -28 13 -28 13 -1 10 -5 -11 -14 l-30 -13 35
-16 35 -15 -32 -1 c-18 -1 -33 3 -33 8 0 5 -8 11 -17 14 -10 2 -27 8 -38 12
-17 7 -16 5 4 -13 14 -13 19 -22 11 -22 -17 0 60 -59 78 -60 6 0 12 -4 12 -9
0 -5 15 -15 33 -22 17 -7 38 -19 45 -26 7 -7 23 -13 35 -13 12 0 31 -7 41 -15
11 -8 30 -15 44 -15 13 0 20 -4 17 -10 -12 -19 132 -60 192 -54 20 2 43 -1 53
-6 10 -5 34 -5 60 1 24 5 50 7 59 3 9 -4 21 -6 26 -5 34 9 144 -1 173 -16 26
-15 36 -15 52 -5 24 15 50 16 50 2 0 -5 7 -10 16 -10 9 0 27 -11 40 -25 14
-16 24 -20 27 -12 5 14 18 -99 22 -198 2 -38 7 -86 10 -106 7 -34 1 -66 -41
-209 -9 -30 -19 -69 -24 -87 -4 -18 -24 -64 -44 -102 -20 -39 -36 -75 -36 -80
0 -14 37 -14 45 -1 3 6 23 10 44 10 23 0 48 8 64 20 14 11 33 20 44 20 10 0
24 9 31 20 8 13 23 20 42 20 31 0 37 -9 19 -27 -8 -8 -5 -14 10 -22 27 -15 27
-35 1 -28 -11 3 -20 1 -20 -4 0 -5 6 -9 14 -9 17 0 29 -44 21 -79 -4 -19 0
-33 15 -48 11 -12 20 -29 20 -38 0 -8 5 -15 10 -15 15 0 55 -43 52 -56 -1 -6
8 -16 20 -22 19 -9 20 -11 5 -11 -10 -1 -16 -5 -12 -11 3 -5 12 -7 19 -4 16 6
54 -62 41 -74 -4 -4 -10 -1 -12 6 -8 22 -20 13 -31 -27 -10 -30 -18 -40 -40
-44 -15 -3 -40 -17 -55 -31 -16 -14 -33 -26 -39 -26 -6 0 -16 -7 -23 -17 -10
-13 -17 -14 -45 -5 -42 15 -61 15 -58 0 5 -20 -100 -25 -209 -9 -81 12 -148 7
-159 -10 -3 -5 10 -9 28 -10 32 0 32 -1 8 -10 -20 -8 -22 -12 -10 -20 13 -8
13 -10 0 -18 -12 -8 -12 -11 4 -17 18 -7 18 -8 -3 -16 -22 -8 -23 -9 -7 -33
14 -22 15 -26 2 -31 -21 -8 -8 -34 16 -34 18 0 19 -2 7 -16 -10 -13 -10 -17 0
-23 22 -14 180 -23 214 -12 31 9 269 25 337 22 50 -2 72 -11 66 -26 -4 -13 48
-45 73 -45 6 0 11 -7 11 -15 0 -16 -14 -24 -46 -29 -9 -1 -22 -10 -29 -19 -9
-13 -19 -15 -42 -8 -16 5 -47 9 -69 10 -21 0 -73 5 -114 9 -68 8 -244 2 -345
-13 -43 -6 -111 -27 -121 -38 -4 -4 -16 -7 -26 -7 -10 0 -18 -3 -18 -8 0 -4
-15 -13 -32 -20 -62 -26 -78 -35 -78 -49 0 -7 -3 -13 -8 -13 -12 0 -35 -61
-26 -70 14 -13 145 -18 141 -5 -2 5 -18 9 -35 7 -24 -2 -32 1 -32 12 0 10 9
16 21 16 15 0 19 4 15 16 -4 11 1 18 14 21 23 6 27 23 5 23 -8 0 -15 4 -15 9
0 14 23 19 41 8 11 -7 27 -3 57 12 23 11 46 21 52 21 5 0 10 -20 10 -44 0
-102 110 -182 204 -146 46 17 103 84 111 129 4 23 11 41 16 41 13 0 59 -46 59
-59 0 -5 7 -11 16 -13 14 -3 13 -8 -8 -33 -14 -16 -23 -36 -21 -43 3 -7 -15
-21 -46 -35 -52 -23 -65 -37 -33 -37 14 0 15 -2 2 -10 -10 -7 -18 -6 -25 4 -6
8 -43 15 -95 19 -56 4 -80 3 -70 -3 8 -5 30 -10 48 -10 17 0 32 -4 32 -9 0 -5
14 -17 32 -25 25 -13 33 -14 40 -4 6 11 12 10 28 0 15 -9 25 -10 34 -3 9 7 19
6 34 -5 12 -8 26 -13 31 -9 5 3 12 1 15 -4 8 -13 78 5 92 23 6 8 31 18 55 22
59 9 128 50 135 80 3 13 13 24 20 24 8 0 19 12 24 26 7 18 15 24 26 20 9 -3
19 -6 24 -6 21 0 29 -70 16 -153 -5 -32 -4 -53 4 -62 9 -11 8 -29 -4 -77 -9
-35 -20 -64 -26 -66 -5 -2 -10 -16 -10 -31 0 -15 -3 -31 -7 -35 -12 -11 -33
-80 -33 -107 0 -25 -32 -69 -50 -69 -6 0 -10 -8 -10 -18 0 -25 -28 -62 -43
-56 -8 3 -22 -13 -35 -40 -12 -24 -29 -49 -37 -56 -8 -7 -15 -21 -15 -31 0
-10 -4 -21 -10 -24 -5 -3 -10 -14 -10 -24 0 -10 -13 -37 -30 -59 -16 -23 -30
-47 -30 -54 0 -27 -39 -78 -55 -72 -15 6 -19 1 -30 -50 -3 -16 -19 -42 -36
-58 -21 -22 -29 -39 -29 -66 0 -35 -20 -67 -85 -133 -8 -9 -15 -23 -15 -32 0
-9 -5 -19 -11 -22 -9 -6 -29 -47 -33 -70 -4 -26 -34 -55 -50 -49 -12 5 -16 0
-16 -21 0 -15 -10 -41 -22 -58 -13 -17 -37 -58 -53 -92 -22 -42 -38 -61 -53
-63 -17 -3 -20 1 -17 18 2 11 0 18 -6 15 -9 -6 -11 0 -13 37 -1 23 -21 23 -22
0 -2 -36 -29 -104 -43 -110 -9 -3 -28 -14 -43 -24 -14 -10 -33 -18 -42 -18
-18 0 -21 -15 -6 -25 20 -12 9 -25 -21 -25 -22 0 -32 -5 -36 -20 -3 -11 -9
-20 -14 -20 -5 0 -9 -9 -9 -19 0 -24 -17 -36 -50 -36 -18 0 -25 -6 -26 -20 -4
-50 -3 -48 -20 -34 -14 11 -21 7 -51 -29 -19 -23 -40 -42 -47 -42 -7 0 -12
-10 -12 -22 1 -13 -4 -23 -11 -23 -6 0 -15 -3 -19 -8 -13 -13 -43 -7 -53 11
-8 14 -11 14 -12 2 -1 -8 -1 -18 0 -23 1 -4 -10 -12 -24 -19 -13 -6 -22 -15
-19 -20 3 -5 3 -16 0 -25 -5 -12 -9 -13 -21 -3 -10 9 -12 17 -5 30 12 22 6 28
-25 22 -16 -3 -27 -13 -31 -28 -8 -31 -21 -30 -36 1 -16 35 -42 28 -46 -13 -2
-20 1 -32 9 -32 7 0 9 -3 6 -6 -3 -4 -2 -15 4 -25 5 -11 7 -19 4 -19 -15 0
-51 24 -67 43 l-16 22 -41 -22 c-40 -22 -57 -13 -29 15 6 6 9 15 5 18 -4 4
-19 -5 -34 -21 l-28 -28 -3 26 c-3 24 -5 24 -29 12 -14 -7 -32 -11 -39 -8 -8
3 -14 1 -14 -3 0 -5 -3 -20 -7 -33 -5 -20 -3 -22 16 -16 12 4 21 2 21 -4 0 -7
22 -11 52 -11 33 0 58 -6 69 -16 16 -15 19 -14 30 4 11 18 13 18 30 1 13 -13
34 -18 76 -18 73 -1 183 18 204 36 9 7 18 10 22 7 4 -4 17 0 29 8 13 8 28 17
33 19 6 2 42 24 80 50 39 25 71 43 73 39 4 -10 -258 -405 -293 -443 -14 -15
-63 -46 -108 -68 -176 -88 -323 -200 -555 -420 -94 -89 -111 -100 -195 -134
-132 -52 -247 -118 -319 -180 -35 -30 -66 -55 -70 -55 -19 0 -27 105 -37 475
-7 220 -14 425 -16 455 -23 305 -7 488 60 682 25 72 45 132 45 135 0 3 9 3 20
0 24 -6 27 15 6 36 -53 53 -276 418 -276 451 0 7 -4 16 -9 21 -5 6 -19 42 -32
80 -12 39 -26 75 -31 81 -9 12 -13 27 -28 109 -5 28 -16 82 -25 120 -8 39 -20
151 -25 250 -16 293 -16 297 -53 320 -18 11 -44 44 -60 75 -28 53 -28 58 -24
175 7 162 -9 423 -39 635 -39 280 -29 399 37 454 63 53 142 18 195 -86 14 -27
29 -46 35 -43 11 8 9 338 -3 372 -4 13 -5 30 -1 39 5 14 7 14 17 -2 11 -20 12
-19 36 108 11 58 71 121 108 113 17 -4 25 0 31 17 5 14 5 28 -2 36 -5 7 -7 15
-4 19 4 3 9 -2 13 -11 9 -23 44 -21 44 4 0 11 4 20 9 20 4 0 13 15 19 33 6 19
10 24 11 13 1 -16 3 -16 26 5 25 24 34 59 15 59 -5 0 -10 9 -10 20 0 24 16 26
28 4 8 -14 10 -12 14 9 3 16 1 24 -5 20 -5 -3 -6 3 -3 15 4 11 2 23 -4 27 -8
5 -8 11 1 21 6 7 8 21 5 30 -9 24 10 42 39 36 20 -3 27 1 35 22 5 14 7 33 4
41 -4 8 -1 22 6 30 6 8 9 19 5 25 -8 13 38 13 51 0 7 -7 19 -3 37 14 15 14 27
29 27 34 0 4 6 20 12 34 16 32 56 43 81 21 9 -9 17 -13 17 -8 0 4 7 2 14 -5
11 -8 20 -9 33 -1 16 9 15 11 -9 20 -35 13 -35 19 -2 31 18 7 31 7 40 -1 15
-12 37 -3 31 14 -2 7 -10 12 -18 13 -45 3 -56 6 -73 19 -15 11 -17 18 -8 27 8
8 15 8 27 -2 13 -10 15 -9 15 9 0 14 6 21 20 21 14 0 20 7 20 22 0 12 3 18 7
14 4 -4 8 -15 8 -24z m35 -3 c0 -6 -4 -7 -10 -4 -5 3 -10 11 -10 16 0 6 5 7
10 4 6 -3 10 -11 10 -16z m-130 1 c0 -5 -9 -10 -21 -10 -11 0 -17 5 -14 10 3
6 13 10 21 10 8 0 14 -4 14 -10z m665 1 c3 -5 1 -12 -5 -16 -5 -3 -10 1 -10 9
0 18 6 21 15 7z m-685 -91 c0 -5 -4 -10 -10 -10 -5 0 -10 5 -10 10 0 6 5 10
10 10 6 0 10 -4 10 -10z m-30 -10 c0 -5 -4 -10 -10 -10 -5 0 -10 5 -10 10 0 6
5 10 10 10 6 0 10 -4 10 -10z m880 -60 c-20 -13 -63 -13 -55 0 3 6 21 10 38
10 24 0 28 -3 17 -10z m819 -2066 c3 -2 -2 -11 -10 -18 -16 -15 -99 -31 -99
-19 1 13 24 39 40 46 15 6 61 0 69 -9z m-4434 -238 c10 -35 15 -70 13 -77 -5
-14 -48 107 -48 135 0 35 18 5 35 -58z m37 -141 c3 -13 1 -22 -3 -19 -9 5 -13
44 -5 44 2 0 6 -11 8 -25z m4650 -800 c0 -5 -5 -11 -11 -13 -6 -2 -11 4 -11
13 0 9 5 15 11 13 6 -2 11 -8 11 -13z m838 -851 c0 -8 -5 -12 -10 -9 -6 4 -8
11 -5 16 9 14 15 11 15 -7z m-3683 -240 c0 -41 -4 -48 -36 -72 -20 -15 -42
-32 -49 -39 -7 -7 -19 -10 -27 -7 -9 4 -15 0 -15 -10 0 -17 -29 -36 -55 -36
-9 0 -15 6 -12 13 2 7 16 11 32 9 23 -3 27 -1 21 13 -4 12 9 33 49 72 30 30
58 66 61 79 11 42 31 28 31 -22z m-2517 -2093 c0 -5 -12 -6 -27 -3 -24 5 -25
6 -8 12 21 8 35 4 35 -9z m-177 -276 c-7 -21 -13 -19 -13 6 0 11 4 18 10 14 5
-3 7 -12 3 -20z"/>
<path d="M6160 9108 c0 -12 7 -18 23 -17 15 0 17 2 7 6 -8 3 -18 11 -22 17 -5
7 -8 4 -8 -6z"/>
<path d="M5625 9090 c3 -5 10 -10 16 -10 5 0 9 5 9 10 0 6 -7 10 -16 10 -8 0
-12 -4 -9 -10z"/>
<path d="M5140 7660 c-8 -5 -41 -10 -72 -10 -68 0 -102 -14 -117 -47 -15 -33
-14 -47 7 -66 20 -18 67 -24 57 -7 -9 14 68 13 82 -1 7 -7 39 -13 72 -13 64
-2 85 -11 61 -26 -12 -8 -9 -10 11 -10 15 0 29 -6 32 -13 5 -13 19 -18 137
-53 30 -9 86 -28 123 -42 55 -21 70 -23 77 -12 5 8 15 10 26 6 17 -6 17 -6 1
12 -9 10 -17 23 -17 29 0 15 -28 24 -32 11 -2 -6 -14 3 -27 20 -12 18 -18 32
-12 32 5 0 13 -5 16 -10 4 -7 12 -7 25 0 13 7 19 6 23 -4 3 -7 19 -16 36 -19
21 -4 29 -11 25 -20 -3 -9 3 -16 15 -20 24 -6 37 8 19 20 -7 4 -14 16 -15 27
-2 30 23 -1 41 -49 8 -22 15 -34 15 -27 1 6 9 12 18 12 15 0 14 2 -3 14 -18
14 -18 15 -1 21 10 4 25 1 34 -6 15 -13 16 -11 9 14 -5 20 -3 27 9 27 18 0 20
26 3 36 -8 5 -7 9 5 13 15 6 16 9 3 26 -15 20 -59 23 -209 12 -32 -2 -60 0
-63 5 -3 4 -12 8 -20 8 -12 0 -12 -4 -4 -20 6 -11 7 -20 2 -20 -5 0 -14 12
-21 26 -7 17 -17 24 -27 20 -8 -3 -17 0 -20 8 -4 11 -59 9 -99 -5 -5 -1 -43 0
-82 5 -53 5 -73 11 -73 22 0 8 5 14 11 14 5 0 7 5 4 10 -3 6 -19 10 -36 10
-36 0 -37 10 -1 32 l27 17 -30 1 c-16 0 -37 -5 -45 -10z m625 -180 c3 -5 2
-10 -4 -10 -5 0 -13 5 -16 10 -3 6 -2 10 4 10 5 0 13 -4 16 -10z m-438 -16
c-3 -3 -12 -4 -19 -1 -8 3 -5 6 6 6 11 1 17 -2 13 -5z"/>
<path d="M5872 7521 c15 -12 32 -20 37 -17 4 3 16 -3 26 -14 22 -25 39 -26 26
-2 -5 9 -8 22 -8 27 1 6 -9 11 -23 12 -14 1 -38 5 -55 9 l-30 7 27 -22z"/>
<path d="M5841 7454 c0 -11 3 -14 6 -6 3 7 2 16 -1 19 -3 4 -6 -2 -5 -13z"/>
<path d="M5682 7365 c-11 -12 -10 -15 3 -15 8 0 15 7 15 15 0 18 -2 18 -18 0z"/>
<path d="M5390 7230 c-112 -19 -233 -56 -225 -70 2 -4 -9 -20 -25 -35 -17 -16
-30 -31 -30 -34 0 -3 14 -7 31 -7 17 -1 35 -7 39 -14 6 -9 10 -7 14 7 4 11 21
27 39 35 90 43 126 58 148 60 22 3 24 -1 29 -52 8 -93 56 -143 135 -142 24 1
58 8 74 16 27 15 71 65 71 82 0 16 33 42 46 37 25 -9 15 17 -18 49 -71 66
-190 91 -328 68z m159 -69 c25 -16 4 -38 -40 -44 -55 -7 -63 -2 -43 29 17 25
56 32 83 15z"/>
<path d="M6593 7001 c-18 -15 -33 -37 -33 -49 0 -11 -4 -24 -10 -27 -15 -9
-12 -54 5 -71 16 -17 35 -11 35 10 0 8 6 19 14 25 8 7 17 24 21 39 3 15 18 36
32 48 18 14 24 26 20 37 -10 25 -48 20 -84 -12z"/>
<path d="M6449 6464 c-10 -12 -10 -40 -1 -141 12 -124 19 -153 30 -123 3 8 13
-16 22 -55 11 -46 21 -70 31 -70 8 0 14 11 15 25 2 51 3 51 24 40 51 -27 57
-139 11 -201 -46 -62 21 -49 73 14 30 36 36 52 38 98 2 63 -25 172 -53 211
-10 15 -19 34 -19 41 0 8 -22 36 -50 63 -27 27 -50 57 -50 66 0 10 -13 24 -29
32 -26 14 -30 14 -42 0z"/>
<path d="M6312 5903 c-34 -16 -47 -51 -14 -38 9 4 27 9 39 11 17 3 20 0 16
-17 -4 -16 -8 -17 -14 -7 -7 10 -9 9 -9 -3 0 -9 6 -19 14 -22 17 -7 126 45
122 58 -1 6 -25 13 -53 16 -28 4 -55 9 -60 12 -5 3 -23 -1 -41 -10z"/>
<path d="M6250 5851 c0 -11 5 -23 10 -26 6 -4 10 5 10 19 0 14 -4 26 -10 26
-5 0 -10 -9 -10 -19z"/>
<path d="M6290 5821 c0 -12 5 -21 10 -21 6 0 10 6 10 14 0 8 -4 18 -10 21 -5
3 -10 -3 -10 -14z"/>
<path d="M6250 5788 c0 -13 -3 -47 -7 -77 -5 -48 -4 -54 10 -48 10 4 33 -3 52
-14 l35 -21 -4 23 c-3 13 -5 27 -5 32 -1 4 -10 7 -22 7 -15 0 -19 4 -15 16 4
9 1 23 -5 30 -6 8 -8 14 -4 14 4 0 14 -8 21 -17 10 -15 15 -16 26 -5 11 11 6
19 -27 48 -47 40 -55 42 -55 12z"/>
<path d="M6394 5776 c-3 -8 -12 -12 -20 -9 -8 3 -17 -3 -21 -13 -4 -10 -2 -19
4 -21 5 -2 19 -10 29 -18 18 -13 18 -14 -3 -8 -26 6 -27 2 -14 -44 6 -21 5
-35 -2 -42 -8 -8 -8 -11 1 -11 20 0 27 4 24 14 -2 5 3 5 10 -1 10 -9 111 -33
135 -33 2 0 8 -12 13 -26 6 -14 15 -22 21 -19 19 13 68 -17 106 -64 58 -71 56
-69 82 -60 19 8 27 5 38 -11 14 -20 16 -20 29 -3 11 15 15 16 23 4 10 -16 31
-6 31 15 0 8 7 14 16 14 13 0 15 7 9 43 -4 23 -13 53 -21 67 l-13 25 -7 -24
c-7 -23 -8 -22 -18 10 -15 45 -91 88 -159 88 -33 1 -49 6 -53 16 -4 10 -13 13
-26 9 -16 -5 -19 -2 -14 13 4 13 -4 22 -30 36 -19 9 -39 17 -45 17 -9 0 -90
34 -112 47 -4 2 -10 -2 -13 -11z"/>
<path d="M7225 5677 c-4 -10 -5 -21 -1 -24 10 -10 18 4 13 24 -4 17 -4 17 -12
0z"/>
<path d="M6176 5671 c-10 -16 5 -41 26 -41 14 0 19 6 16 22 -3 24 -32 36 -42
19z"/>
<path d="M6313 5462 c-84 -28 -89 -42 -14 -42 55 0 62 -2 57 -18 -4 -12 1 -20
17 -27 14 -7 27 -27 38 -60 9 -29 22 -50 30 -50 8 0 18 -10 24 -22 11 -26 65
-38 81 -17 6 7 13 11 16 9 3 -3 16 8 29 26 13 17 30 37 38 45 8 9 12 30 9 54
-4 42 4 50 48 50 13 0 24 4 24 8 0 16 -48 31 -92 27 -23 -1 -72 4 -108 12 -99
23 -140 24 -197 5z"/>
<path d="M6876 5348 c9 -31 12 -34 26 -20 8 8 8 15 -2 27 -19 22 -32 18 -24
-7z"/>
<path d="M5977 5112 c23 -24 51 -44 65 -45 22 -1 45 -23 60 -57 5 -12 7 -12 7
3 1 13 7 16 27 13 34 -6 140 47 147 74 7 26 0 30 -45 30 -22 0 -58 4 -81 10
-23 5 -82 11 -132 12 l-90 3 42 -43z"/>
<path d="M5200 5115 c0 -8 5 -15 10 -15 6 0 10 7 10 15 0 8 -4 15 -10 15 -5 0
-10 -7 -10 -15z"/>
<path d="M6305 5120 c-3 -5 1 -10 10 -10 9 0 13 5 10 10 -3 6 -8 10 -10 10 -2
0 -7 -4 -10 -10z"/>
<path d="M5260 5067 c0 -17 35 -67 46 -67 21 0 17 16 -11 45 -24 23 -35 30
-35 22z"/>
<path d="M5341 4960 c0 -35 36 -77 52 -61 9 9 7 16 -9 29 -12 9 -26 26 -32 37
-11 19 -11 19 -11 -5z"/>
<path d="M5412 4859 c1 -12 9 -24 16 -27 9 -3 13 3 10 19 -1 12 -9 24 -16 27
-9 3 -13 -3 -10 -19z"/>
<path d="M5460 4806 c0 -9 7 -16 16 -16 9 0 14 5 12 12 -6 18 -28 21 -28 4z"/>
<path d="M5500 4765 c0 -8 5 -15 10 -15 6 0 10 7 10 15 0 8 -4 15 -10 15 -5 0
-10 -7 -10 -15z"/>
<path d="M5570 4720 c0 -13 7 -20 20 -20 11 0 20 -4 20 -10 0 -15 20 -12 38 7
16 15 15 16 -11 9 -20 -5 -27 -3 -27 8 0 8 -7 17 -16 20 -23 9 -24 8 -24 -14z"/>
<path d="M5817 4713 c-12 -11 -8 -45 5 -41 6 2 18 14 26 26 13 20 13 22 -5 22
-11 0 -23 -3 -26 -7z"/>
<path d="M5685 4688 c-10 -25 1 -36 46 -50 32 -9 42 -9 48 0 5 9 13 7 26 -8
22 -25 48 -26 43 -3 -4 23 -49 44 -96 46 -20 1 -42 9 -49 17 -10 13 -12 13
-18 -2z"/>
<path d="M2168 5233 c7 -3 16 -2 19 1 4 3 -2 6 -13 5 -11 0 -14 -3 -6 -6z"/>
<path d="M2164 5013 c10 -11 76 -31 76 -24 0 4 -15 12 -33 19 -37 13 -54 15
-43 5z"/>
<path d="M2690 4980 c1 -15 81 -110 93 -110 20 0 1 31 -43 75 -27 27 -50 43
-50 35z"/>
<path d="M1960 4910 c0 -5 10 -14 23 -21 12 -6 47 -31 79 -55 31 -24 59 -44
62 -44 4 0 28 -17 55 -37 26 -21 58 -45 70 -53 13 -8 36 -27 54 -42 37 -34 50
-36 36 -5 -9 21 -90 79 -291 209 -48 32 -88 53 -88 48z"/>
<path d="M1880 4626 c0 -8 -3 -21 -6 -29 -3 -10 3 -16 20 -19 14 -3 26 -4 26
-3 0 1 -5 16 -11 34 -11 32 -29 42 -29 17z"/>
<path d="M2100 2839 c0 -11 5 -17 10 -14 6 3 10 13 10 21 0 8 -4 14 -10 14 -5
0 -10 -9 -10 -21z"/>
<path d="M2221 2774 c0 -11 3 -14 6 -6 3 7 2 16 -1 19 -3 4 -6 -2 -5 -13z"/>
<path d="M2103 306 c-6 -8 -13 -22 -15 -32 -2 -15 4 -20 30 -22 35 -4 42 11
22 49 -12 22 -21 23 -37 5z"/>
<path d="M2501 214 c0 -11 3 -14 6 -6 3 7 2 16 -1 19 -3 4 -6 -2 -5 -13z"/>
<path d="M2445 160 c3 -5 8 -10 11 -10 2 0 4 5 4 10 0 6 -5 10 -11 10 -5 0 -7
-4 -4 -10z"/>
<path d="M2140 50 c0 -5 5 -10 10 -10 6 0 10 5 10 10 0 6 -4 10 -10 10 -5 0
-10 -4 -10 -10z"/>
</g>
</svg>
